<?xml version="1.0" standalone="no"?>
<svg xmlns="http://www.w3.org/2000/svg" version="1.1" width="648" height="648">
	<!-- Created with https://api.qrserver.com (QR Code API, see goQR.me/api for information) -->
	<title>QR Code</title>
	<desc>https://linktr.ee/statdoctorau</desc>
	<rect style="fill:rgb(255, 255, 255);fill-opacity:1" x="0" y="0" width="648" height="648" />
	<g id="elements">
		<path style="fill:rgb(26, 26, 46)" d="M 24,24 l 24,0 0,24 -24,0 z M 48,24 l 24,0 0,24 -24,0 z M 72,24 l 24,0 0,24 -24,0 z M 96,24 l 24,0 0,24 -24,0 z M 120,24 l 24,0 0,24 -24,0 z M 144,24 l 24,0 0,24 -24,0 z M 168,24 l 24,0 0,24 -24,0 z M 240,24 l 24,0 0,24 -24,0 z M 264,24 l 24,0 0,24 -24,0 z M 288,24 l 24,0 0,24 -24,0 z M 336,24 l 24,0 0,24 -24,0 z M 456,24 l 24,0 0,24 -24,0 z M 480,24 l 24,0 0,24 -24,0 z M 504,24 l 24,0 0,24 -24,0 z M 528,24 l 24,0 0,24 -24,0 z M 552,24 l 24,0 0,24 -24,0 z M 576,24 l 24,0 0,24 -24,0 z M 600,24 l 24,0 0,24 -24,0 z M 24,48 l 24,0 0,24 -24,0 z M 168,48 l 24,0 0,24 -24,0 z M 216,48 l 24,0 0,24 -24,0 z M 240,48 l 24,0 0,24 -24,0 z M 264,48 l 24,0 0,24 -24,0 z M 336,48 l 24,0 0,24 -24,0 z M 360,48 l 24,0 0,24 -24,0 z M 384,48 l 24,0 0,24 -24,0 z M 408,48 l 24,0 0,24 -24,0 z M 456,48 l 24,0 0,24 -24,0 z M 600,48 l 24,0 0,24 -24,0 z M 24,72 l 24,0 0,24 -24,0 z M 72,72 l 24,0 0,24 -24,0 z M 96,72 l 24,0 0,24 -24,0 z M 120,72 l 24,0 0,24 -24,0 z M 168,72 l 24,0 0,24 -24,0 z M 240,72 l 24,0 0,24 -24,0 z M 264,72 l 24,0 0,24 -24,0 z M 312,72 l 24,0 0,24 -24,0 z M 360,72 l 24,0 0,24 -24,0 z M 384,72 l 24,0 0,24 -24,0 z M 408,72 l 24,0 0,24 -24,0 z M 456,72 l 24,0 0,24 -24,0 z M 504,72 l 24,0 0,24 -24,0 z M 528,72 l 24,0 0,24 -24,0 z M 552,72 l 24,0 0,24 -24,0 z M 600,72 l 24,0 0,24 -24,0 z M 24,96 l 24,0 0,24 -24,0 z M 72,96 l 24,0 0,24 -24,0 z M 96,96 l 24,0 0,24 -24,0 z M 120,96 l 24,0 0,24 -24,0 z M 168,96 l 24,0 0,24 -24,0 z M 216,96 l 24,0 0,24 -24,0 z M 240,96 l 24,0 0,24 -24,0 z M 312,96 l 24,0 0,24 -24,0 z M 336,96 l 24,0 0,24 -24,0 z M 360,96 l 24,0 0,24 -24,0 z M 384,96 l 24,0 0,24 -24,0 z M 456,96 l 24,0 0,24 -24,0 z M 504,96 l 24,0 0,24 -24,0 z M 528,96 l 24,0 0,24 -24,0 z M 552,96 l 24,0 0,24 -24,0 z M 600,96 l 24,0 0,24 -24,0 z M 24,120 l 24,0 0,24 -24,0 z M 72,120 l 24,0 0,24 -24,0 z M 96,120 l 24,0 0,24 -24,0 z M 120,120 l 24,0 0,24 -24,0 z M 168,120 l 24,0 0,24 -24,0 z M 288,120 l 24,0 0,24 -24,0 z M 360,120 l 24,0 0,24 -24,0 z M 408,120 l 24,0 0,24 -24,0 z M 456,120 l 24,0 0,24 -24,0 z M 504,120 l 24,0 0,24 -24,0 z M 528,120 l 24,0 0,24 -24,0 z M 552,120 l 24,0 0,24 -24,0 z M 600,120 l 24,0 0,24 -24,0 z M 24,144 l 24,0 0,24 -24,0 z M 168,144 l 24,0 0,24 -24,0 z M 216,144 l 24,0 0,24 -24,0 z M 264,144 l 24,0 0,24 -24,0 z M 312,144 l 24,0 0,24 -24,0 z M 336,144 l 24,0 0,24 -24,0 z M 384,144 l 24,0 0,24 -24,0 z M 408,144 l 24,0 0,24 -24,0 z M 456,144 l 24,0 0,24 -24,0 z M 600,144 l 24,0 0,24 -24,0 z M 24,168 l 24,0 0,24 -24,0 z M 48,168 l 24,0 0,24 -24,0 z M 72,168 l 24,0 0,24 -24,0 z M 96,168 l 24,0 0,24 -24,0 z M 120,168 l 24,0 0,24 -24,0 z M 144,168 l 24,0 0,24 -24,0 z M 168,168 l 24,0 0,24 -24,0 z M 216,168 l 24,0 0,24 -24,0 z M 264,168 l 24,0 0,24 -24,0 z M 312,168 l 24,0 0,24 -24,0 z M 360,168 l 24,0 0,24 -24,0 z M 408,168 l 24,0 0,24 -24,0 z M 456,168 l 24,0 0,24 -24,0 z M 480,168 l 24,0 0,24 -24,0 z M 504,168 l 24,0 0,24 -24,0 z M 528,168 l 24,0 0,24 -24,0 z M 552,168 l 24,0 0,24 -24,0 z M 576,168 l 24,0 0,24 -24,0 z M 600,168 l 24,0 0,24 -24,0 z M 288,192 l 24,0 0,24 -24,0 z M 312,192 l 24,0 0,24 -24,0 z M 360,192 l 24,0 0,24 -24,0 z M 384,192 l 24,0 0,24 -24,0 z M 408,192 l 24,0 0,24 -24,0 z M 24,216 l 24,0 0,24 -24,0 z M 48,216 l 24,0 0,24 -24,0 z M 72,216 l 24,0 0,24 -24,0 z M 96,216 l 24,0 0,24 -24,0 z M 120,216 l 24,0 0,24 -24,0 z M 168,216 l 24,0 0,24 -24,0 z M 192,216 l 24,0 0,24 -24,0 z M 216,216 l 24,0 0,24 -24,0 z M 240,216 l 24,0 0,24 -24,0 z M 264,216 l 24,0 0,24 -24,0 z M 336,216 l 24,0 0,24 -24,0 z M 360,216 l 24,0 0,24 -24,0 z M 384,216 l 24,0 0,24 -24,0 z M 432,216 l 24,0 0,24 -24,0 z M 480,216 l 24,0 0,24 -24,0 z M 528,216 l 24,0 0,24 -24,0 z M 576,216 l 24,0 0,24 -24,0 z M 96,240 l 24,0 0,24 -24,0 z M 120,240 l 24,0 0,24 -24,0 z M 240,240 l 24,0 0,24 -24,0 z M 288,240 l 24,0 0,24 -24,0 z M 360,240 l 24,0 0,24 -24,0 z M 408,240 l 24,0 0,24 -24,0 z M 480,240 l 24,0 0,24 -24,0 z M 576,240 l 24,0 0,24 -24,0 z M 96,264 l 24,0 0,24 -24,0 z M 120,264 l 24,0 0,24 -24,0 z M 168,264 l 24,0 0,24 -24,0 z M 216,264 l 24,0 0,24 -24,0 z M 240,264 l 24,0 0,24 -24,0 z M 360,264 l 24,0 0,24 -24,0 z M 384,264 l 24,0 0,24 -24,0 z M 528,264 l 24,0 0,24 -24,0 z M 576,264 l 24,0 0,24 -24,0 z M 600,264 l 24,0 0,24 -24,0 z M 24,288 l 24,0 0,24 -24,0 z M 144,288 l 24,0 0,24 -24,0 z M 192,288 l 24,0 0,24 -24,0 z M 216,288 l 24,0 0,24 -24,0 z M 240,288 l 24,0 0,24 -24,0 z M 264,288 l 24,0 0,24 -24,0 z M 288,288 l 24,0 0,24 -24,0 z M 408,288 l 24,0 0,24 -24,0 z M 432,288 l 24,0 0,24 -24,0 z M 456,288 l 24,0 0,24 -24,0 z M 480,288 l 24,0 0,24 -24,0 z M 504,288 l 24,0 0,24 -24,0 z M 600,288 l 24,0 0,24 -24,0 z M 48,312 l 24,0 0,24 -24,0 z M 96,312 l 24,0 0,24 -24,0 z M 168,312 l 24,0 0,24 -24,0 z M 240,312 l 24,0 0,24 -24,0 z M 288,312 l 24,0 0,24 -24,0 z M 312,312 l 24,0 0,24 -24,0 z M 336,312 l 24,0 0,24 -24,0 z M 360,312 l 24,0 0,24 -24,0 z M 432,312 l 24,0 0,24 -24,0 z M 456,312 l 24,0 0,24 -24,0 z M 504,312 l 24,0 0,24 -24,0 z M 552,312 l 24,0 0,24 -24,0 z M 576,312 l 24,0 0,24 -24,0 z M 600,312 l 24,0 0,24 -24,0 z M 24,336 l 24,0 0,24 -24,0 z M 48,336 l 24,0 0,24 -24,0 z M 72,336 l 24,0 0,24 -24,0 z M 96,336 l 24,0 0,24 -24,0 z M 216,336 l 24,0 0,24 -24,0 z M 264,336 l 24,0 0,24 -24,0 z M 288,336 l 24,0 0,24 -24,0 z M 480,336 l 24,0 0,24 -24,0 z M 528,336 l 24,0 0,24 -24,0 z M 576,336 l 24,0 0,24 -24,0 z M 24,360 l 24,0 0,24 -24,0 z M 168,360 l 24,0 0,24 -24,0 z M 192,360 l 24,0 0,24 -24,0 z M 312,360 l 24,0 0,24 -24,0 z M 384,360 l 24,0 0,24 -24,0 z M 432,360 l 24,0 0,24 -24,0 z M 480,360 l 24,0 0,24 -24,0 z M 504,360 l 24,0 0,24 -24,0 z M 528,360 l 24,0 0,24 -24,0 z M 576,360 l 24,0 0,24 -24,0 z M 600,360 l 24,0 0,24 -24,0 z M 24,384 l 24,0 0,24 -24,0 z M 72,384 l 24,0 0,24 -24,0 z M 96,384 l 24,0 0,24 -24,0 z M 144,384 l 24,0 0,24 -24,0 z M 192,384 l 24,0 0,24 -24,0 z M 240,384 l 24,0 0,24 -24,0 z M 360,384 l 24,0 0,24 -24,0 z M 480,384 l 24,0 0,24 -24,0 z M 504,384 l 24,0 0,24 -24,0 z M 600,384 l 24,0 0,24 -24,0 z M 24,408 l 24,0 0,24 -24,0 z M 72,408 l 24,0 0,24 -24,0 z M 120,408 l 24,0 0,24 -24,0 z M 144,408 l 24,0 0,24 -24,0 z M 168,408 l 24,0 0,24 -24,0 z M 192,408 l 24,0 0,24 -24,0 z M 216,408 l 24,0 0,24 -24,0 z M 240,408 l 24,0 0,24 -24,0 z M 336,408 l 24,0 0,24 -24,0 z M 360,408 l 24,0 0,24 -24,0 z M 384,408 l 24,0 0,24 -24,0 z M 408,408 l 24,0 0,24 -24,0 z M 432,408 l 24,0 0,24 -24,0 z M 456,408 l 24,0 0,24 -24,0 z M 480,408 l 24,0 0,24 -24,0 z M 504,408 l 24,0 0,24 -24,0 z M 552,408 l 24,0 0,24 -24,0 z M 216,432 l 24,0 0,24 -24,0 z M 264,432 l 24,0 0,24 -24,0 z M 288,432 l 24,0 0,24 -24,0 z M 360,432 l 24,0 0,24 -24,0 z M 408,432 l 24,0 0,24 -24,0 z M 504,432 l 24,0 0,24 -24,0 z M 528,432 l 24,0 0,24 -24,0 z M 24,456 l 24,0 0,24 -24,0 z M 48,456 l 24,0 0,24 -24,0 z M 72,456 l 24,0 0,24 -24,0 z M 96,456 l 24,0 0,24 -24,0 z M 120,456 l 24,0 0,24 -24,0 z M 144,456 l 24,0 0,24 -24,0 z M 168,456 l 24,0 0,24 -24,0 z M 216,456 l 24,0 0,24 -24,0 z M 264,456 l 24,0 0,24 -24,0 z M 360,456 l 24,0 0,24 -24,0 z M 408,456 l 24,0 0,24 -24,0 z M 456,456 l 24,0 0,24 -24,0 z M 504,456 l 24,0 0,24 -24,0 z M 552,456 l 24,0 0,24 -24,0 z M 576,456 l 24,0 0,24 -24,0 z M 600,456 l 24,0 0,24 -24,0 z M 24,480 l 24,0 0,24 -24,0 z M 168,480 l 24,0 0,24 -24,0 z M 264,480 l 24,0 0,24 -24,0 z M 288,480 l 24,0 0,24 -24,0 z M 312,480 l 24,0 0,24 -24,0 z M 408,480 l 24,0 0,24 -24,0 z M 504,480 l 24,0 0,24 -24,0 z M 528,480 l 24,0 0,24 -24,0 z M 24,504 l 24,0 0,24 -24,0 z M 72,504 l 24,0 0,24 -24,0 z M 96,504 l 24,0 0,24 -24,0 z M 120,504 l 24,0 0,24 -24,0 z M 168,504 l 24,0 0,24 -24,0 z M 216,504 l 24,0 0,24 -24,0 z M 312,504 l 24,0 0,24 -24,0 z M 336,504 l 24,0 0,24 -24,0 z M 360,504 l 24,0 0,24 -24,0 z M 384,504 l 24,0 0,24 -24,0 z M 408,504 l 24,0 0,24 -24,0 z M 432,504 l 24,0 0,24 -24,0 z M 456,504 l 24,0 0,24 -24,0 z M 480,504 l 24,0 0,24 -24,0 z M 504,504 l 24,0 0,24 -24,0 z M 552,504 l 24,0 0,24 -24,0 z M 576,504 l 24,0 0,24 -24,0 z M 24,528 l 24,0 0,24 -24,0 z M 72,528 l 24,0 0,24 -24,0 z M 96,528 l 24,0 0,24 -24,0 z M 120,528 l 24,0 0,24 -24,0 z M 168,528 l 24,0 0,24 -24,0 z M 216,528 l 24,0 0,24 -24,0 z M 240,528 l 24,0 0,24 -24,0 z M 264,528 l 24,0 0,24 -24,0 z M 288,528 l 24,0 0,24 -24,0 z M 384,528 l 24,0 0,24 -24,0 z M 432,528 l 24,0 0,24 -24,0 z M 456,528 l 24,0 0,24 -24,0 z M 504,528 l 24,0 0,24 -24,0 z M 528,528 l 24,0 0,24 -24,0 z M 552,528 l 24,0 0,24 -24,0 z M 576,528 l 24,0 0,24 -24,0 z M 600,528 l 24,0 0,24 -24,0 z M 24,552 l 24,0 0,24 -24,0 z M 72,552 l 24,0 0,24 -24,0 z M 96,552 l 24,0 0,24 -24,0 z M 120,552 l 24,0 0,24 -24,0 z M 168,552 l 24,0 0,24 -24,0 z M 216,552 l 24,0 0,24 -24,0 z M 360,552 l 24,0 0,24 -24,0 z M 528,552 l 24,0 0,24 -24,0 z M 552,552 l 24,0 0,24 -24,0 z M 600,552 l 24,0 0,24 -24,0 z M 24,576 l 24,0 0,24 -24,0 z M 168,576 l 24,0 0,24 -24,0 z M 216,576 l 24,0 0,24 -24,0 z M 264,576 l 24,0 0,24 -24,0 z M 288,576 l 24,0 0,24 -24,0 z M 408,576 l 24,0 0,24 -24,0 z M 480,576 l 24,0 0,24 -24,0 z M 504,576 l 24,0 0,24 -24,0 z M 528,576 l 24,0 0,24 -24,0 z M 600,576 l 24,0 0,24 -24,0 z M 24,600 l 24,0 0,24 -24,0 z M 48,600 l 24,0 0,24 -24,0 z M 72,600 l 24,0 0,24 -24,0 z M 96,600 l 24,0 0,24 -24,0 z M 120,600 l 24,0 0,24 -24,0 z M 144,600 l 24,0 0,24 -24,0 z M 168,600 l 24,0 0,24 -24,0 z M 216,600 l 24,0 0,24 -24,0 z M 240,600 l 24,0 0,24 -24,0 z M 264,600 l 24,0 0,24 -24,0 z M 288,600 l 24,0 0,24 -24,0 z M 312,600 l 24,0 0,24 -24,0 z M 336,600 l 24,0 0,24 -24,0 z M 360,600 l 24,0 0,24 -24,0 z M 432,600 l 24,0 0,24 -24,0 z M 480,600 l 24,0 0,24 -24,0 z M 504,600 l 24,0 0,24 -24,0 z M 528,600 l 24,0 0,24 -24,0 z M 552,600 l 24,0 0,24 -24,0 z M 576,600 l 24,0 0,24 -24,0 z M 600,600 l 24,0 0,24 -24,0 z " />
	</g>
</svg>
